<?xml version="1.0" encoding="UTF-8"?>
<!DOCTYPE svg
PUBLIC "-//W3C//DTD SVG 1.1//EN"
       "http://www.w3.org/Graphics/SVG/1.1/DTD/svg11.dtd">
<svg viewBox="15 -5 1172 595" width="1157px" height="600px" xmlns="http://www.w3.org/2000/svg" version="1.1">
   <line x1="270" y1="60" x2="260" y2="60" style="stroke:#cb0;stroke-width:1;"/>
   <line x1="178" y1="40" x2="168" y2="40" style="stroke:#cb0;stroke-width:1;"/>
   <line x1="260" y1="60" x2="178" y2="40" style="stroke:#cb0;stroke-width:1;"/>
   <line x1="262.5" y1="60" x2="266.03553390593" y2="63.535533905933" style="stroke:#cb0;stroke-width:2;"/>
   <line x1="262.5" y1="60" x2="266.03553390593" y2="56.464466094067" style="stroke:#cb0;stroke-width:2;"/>
   <line x1="173" y1="40" x2="176.53553390593" y2="43.535533905933" style="stroke:#cb0;stroke-width:2;"/>
   <line x1="173" y1="40" x2="176.53553390593" y2="36.464466094067" style="stroke:#cb0;stroke-width:2;"/>
   <line x1="270" y1="80" x2="260" y2="80" style="stroke:#cb0;stroke-width:1;"/>
   <line x1="260" y1="190" x2="270" y2="190" style="stroke:#cb0;stroke-width:1;"/>
   <line x1="260" y1="80" x2="260" y2="190" style="stroke:#cb0;stroke-width:1;"/>
   <line x1="262.5" y1="80" x2="266.03553390593" y2="83.535533905933" style="stroke:#cb0;stroke-width:2;"/>
   <line x1="262.5" y1="80" x2="266.03553390593" y2="76.464466094067" style="stroke:#cb0;stroke-width:2;"/>
   <line x1="265" y1="190" x2="261.46446609407" y2="193.53553390593" style="stroke:#cb0;stroke-width:2;"/>
   <line x1="265" y1="190" x2="261.46446609407" y2="186.46446609407" style="stroke:#cb0;stroke-width:2;"/>
   <line x1="30" y1="280" x2="20" y2="280" style="stroke:#c00;stroke-width:1;"/>
   <line x1="20" y1="40" x2="30" y2="40" style="stroke:#c00;stroke-width:1;"/>
   <line x1="20" y1="280" x2="20" y2="40" style="stroke:#c00;stroke-width:1;"/>
   <line x1="22.5" y1="280" x2="26.035533905933" y2="283.53553390593" style="stroke:#c00;stroke-width:2;"/>
   <line x1="22.5" y1="280" x2="26.035533905933" y2="276.46446609407" style="stroke:#c00;stroke-width:2;"/>
   <line x1="25" y1="40" x2="21.464466094067" y2="43.535533905933" style="stroke:#c00;stroke-width:2;"/>
   <line x1="25" y1="40" x2="21.464466094067" y2="36.464466094067" style="stroke:#c00;stroke-width:2;"/>
   <line x1="510" y1="240" x2="500" y2="240" style="stroke:#0bf;stroke-width:1;"/>
   <line x1="500" y1="40" x2="510" y2="40" style="stroke:#0bf;stroke-width:1;"/>
   <line x1="500" y1="240" x2="500" y2="40" style="stroke:#0bf;stroke-width:1;"/>
   <line x1="502.5" y1="240" x2="506.03553390593" y2="243.53553390593" style="stroke:#0bf;stroke-width:2;"/>
   <line x1="502.5" y1="240" x2="506.03553390593" y2="236.46446609407" style="stroke:#0bf;stroke-width:2;"/>
   <line x1="505" y1="40" x2="501.46446609407" y2="43.535533905933" style="stroke:#0bf;stroke-width:2;"/>
   <line x1="505" y1="40" x2="501.46446609407" y2="36.464466094067" style="stroke:#0bf;stroke-width:2;"/>
   <line x1="750" y1="90" x2="740" y2="90" style="stroke:#cb0;stroke-width:1;"/>
   <line x1="651" y1="140" x2="641" y2="140" style="stroke:#cb0;stroke-width:1;"/>
   <line x1="740" y1="90" x2="651" y2="140" style="stroke:#cb0;stroke-width:1;"/>
   <line x1="742.5" y1="90" x2="746.03553390593" y2="93.535533905933" style="stroke:#cb0;stroke-width:2;"/>
   <line x1="742.5" y1="90" x2="746.03553390593" y2="86.464466094067" style="stroke:#cb0;stroke-width:2;"/>
   <line x1="646" y1="140" x2="649.53553390593" y2="143.53553390593" style="stroke:#cb0;stroke-width:2;"/>
   <line x1="646" y1="140" x2="649.53553390593" y2="136.46446609407" style="stroke:#cb0;stroke-width:2;"/>
   <line x1="750" y1="130" x2="740" y2="130" style="stroke:#b0b;stroke-width:1;"/>
   <line x1="684" y1="380" x2="674" y2="380" style="stroke:#b0b;stroke-width:1;"/>
   <line x1="740" y1="130" x2="684" y2="380" style="stroke:#b0b;stroke-width:1;"/>
   <line x1="742.5" y1="130" x2="746.03553390593" y2="133.53553390593" style="stroke:#b0b;stroke-width:2;"/>
   <line x1="742.5" y1="130" x2="746.03553390593" y2="126.46446609407" style="stroke:#b0b;stroke-width:2;"/>
   <line x1="679" y1="380" x2="682.53553390593" y2="383.53553390593" style="stroke:#b0b;stroke-width:2;"/>
   <line x1="679" y1="380" x2="682.53553390593" y2="376.46446609407" style="stroke:#b0b;stroke-width:2;"/>
   <line x1="750" y1="310" x2="740" y2="310" style="stroke:#b0b;stroke-width:1;"/>
   <line x1="684" y1="380" x2="674" y2="380" style="stroke:#b0b;stroke-width:1;"/>
   <line x1="740" y1="310" x2="684" y2="380" style="stroke:#b0b;stroke-width:1;"/>
   <line x1="742.5" y1="310" x2="746.03553390593" y2="313.53553390593" style="stroke:#b0b;stroke-width:2;"/>
   <line x1="742.5" y1="310" x2="746.03553390593" y2="306.46446609407" style="stroke:#b0b;stroke-width:2;"/>
   <line x1="679" y1="380" x2="682.53553390593" y2="383.53553390593" style="stroke:#b0b;stroke-width:2;"/>
   <line x1="679" y1="380" x2="682.53553390593" y2="376.46446609407" style="stroke:#b0b;stroke-width:2;"/>
   <line x1="750" y1="330" x2="740" y2="330" style="stroke:#c00;stroke-width:1;"/>
   <line x1="150" y1="200" x2="140" y2="200" style="stroke:#c00;stroke-width:1;"/>
   <line x1="740" y1="330" x2="150" y2="200" style="stroke:#c00;stroke-width:1;"/>
   <line x1="742.5" y1="330" x2="746.03553390593" y2="333.53553390593" style="stroke:#c00;stroke-width:2;"/>
   <line x1="742.5" y1="330" x2="746.03553390593" y2="326.46446609407" style="stroke:#c00;stroke-width:2;"/>
   <line x1="145" y1="200" x2="148.53553390593" y2="203.53553390593" style="stroke:#c00;stroke-width:2;"/>
   <line x1="145" y1="200" x2="148.53553390593" y2="196.46446609407" style="stroke:#c00;stroke-width:2;"/>
   <line x1="886" y1="450" x2="896" y2="450" style="stroke:#c00;stroke-width:1;"/>
   <line x1="960" y1="290" x2="970" y2="290" style="stroke:#c00;stroke-width:1;"/>
   <line x1="896" y1="450" x2="960" y2="290" style="stroke:#c00;stroke-width:1;"/>
   <line x1="893.5" y1="450" x2="889.96446609407" y2="453.53553390593" style="stroke:#c00;stroke-width:2;"/>
   <line x1="893.5" y1="450" x2="889.96446609407" y2="446.46446609407" style="stroke:#c00;stroke-width:2;"/>
   <line x1="965" y1="290" x2="961.46446609407" y2="293.53553390593" style="stroke:#c00;stroke-width:2;"/>
   <line x1="965" y1="290" x2="961.46446609407" y2="286.46446609407" style="stroke:#c00;stroke-width:2;"/>
   <line x1="406" y1="530" x2="416" y2="530" style="stroke:#0b0;stroke-width:1;"/>
   <line x1="510" y1="380" x2="520" y2="380" style="stroke:#0b0;stroke-width:1;"/>
   <line x1="416" y1="530" x2="510" y2="380" style="stroke:#0b0;stroke-width:1;"/>
   <line x1="413.5" y1="530" x2="409.96446609407" y2="533.53553390593" style="stroke:#0b0;stroke-width:2;"/>
   <line x1="413.5" y1="530" x2="409.96446609407" y2="526.46446609407" style="stroke:#0b0;stroke-width:2;"/>
   <line x1="515" y1="380" x2="511.46446609407" y2="383.53553390593" style="stroke:#0b0;stroke-width:2;"/>
   <line x1="515" y1="380" x2="511.46446609407" y2="376.46446609407" style="stroke:#0b0;stroke-width:2;"/>
   <line x1="250" y1="510" x2="240" y2="510" style="stroke:#b0b;stroke-width:1;"/>
   <line x1="150" y1="200" x2="140" y2="200" style="stroke:#b0b;stroke-width:1;"/>
   <line x1="240" y1="510" x2="150" y2="200" style="stroke:#b0b;stroke-width:1;"/>
   <line x1="242.5" y1="510" x2="246.03553390593" y2="513.53553390593" style="stroke:#b0b;stroke-width:2;"/>
   <line x1="242.5" y1="510" x2="246.03553390593" y2="506.46446609407" style="stroke:#b0b;stroke-width:2;"/>
   <line x1="145" y1="200" x2="148.53553390593" y2="203.53553390593" style="stroke:#b0b;stroke-width:2;"/>
   <line x1="145" y1="200" x2="148.53553390593" y2="196.46446609407" style="stroke:#b0b;stroke-width:2;"/>
   <line x1="250" y1="550" x2="240" y2="550" style="stroke:#333;stroke-width:1;"/>
   <line x1="240" y1="320" x2="250" y2="320" style="stroke:#333;stroke-width:1;"/>
   <line x1="240" y1="550" x2="240" y2="320" style="stroke:#333;stroke-width:1;"/>
   <line x1="242.5" y1="550" x2="246.03553390593" y2="553.53553390593" style="stroke:#333;stroke-width:2;"/>
   <line x1="242.5" y1="550" x2="246.03553390593" y2="546.46446609407" style="stroke:#333;stroke-width:2;"/>
   <line x1="245" y1="320" x2="241.46446609407" y2="323.53553390593" style="stroke:#333;stroke-width:2;"/>
   <line x1="245" y1="320" x2="241.46446609407" y2="316.46446609407" style="stroke:#333;stroke-width:2;"/>
   <rect width="124" height="20" x="270" y="10" style="fill:#007;stroke:black;"/>
   <text width="124" height="20" x="275" y="24" style="fill:#fff;" font-family="Arial" font-size="16px"> detail_fasilitas</text>
   <rect width="124" height="20" x="270" y="30" style="fill:#aea;stroke:black;"/>
   <text width="124" height="20" x="275" y="44" style="fill:black;" font-family="Arial" font-size="16px">id_detail_fasilitas</text>
   <rect width="124" height="20" x="270" y="50" style="fill:none;stroke:black;"/>
   <text width="124" height="20" x="275" y="64" style="fill:black;" font-family="Arial" font-size="16px">id_jenis_kamar</text>
   <rect width="124" height="20" x="270" y="70" style="fill:none;stroke:black;"/>
   <text width="124" height="20" x="275" y="84" style="fill:black;" font-family="Arial" font-size="16px">kode_fasilitas</text>
   <rect width="150" height="20" x="250" y="270" style="fill:#007;stroke:black;"/>
   <text width="150" height="20" x="255" y="284" style="fill:#fff;" font-family="Arial" font-size="16px"> extra_fasilitas</text>
   <rect width="150" height="20" x="250" y="290" style="fill:#aea;stroke:black;"/>
   <text width="150" height="20" x="255" y="304" style="fill:black;" font-family="Arial" font-size="16px">id_extra_fasilitas</text>
   <rect width="150" height="20" x="250" y="310" style="fill:none;stroke:black;"/>
   <text width="150" height="20" x="255" y="324" style="fill:black;" font-family="Arial" font-size="16px">kode_extra_fasilitas</text>
   <rect width="150" height="20" x="250" y="330" style="fill:none;stroke:black;"/>
   <text width="150" height="20" x="255" y="344" style="fill:black;" font-family="Arial" font-size="16px">nama_extra_fasilitas</text>
   <rect width="150" height="20" x="250" y="350" style="fill:none;stroke:black;"/>
   <text width="150" height="20" x="255" y="364" style="fill:black;" font-family="Arial" font-size="16px">stok_extra_fasilitas</text>
   <rect width="150" height="20" x="250" y="370" style="fill:none;stroke:black;"/>
   <text width="150" height="20" x="255" y="384" style="fill:black;" font-family="Arial" font-size="16px">harga_extra_fasilitas</text>
   <rect width="108" height="20" x="270" y="140" style="fill:#007;stroke:black;"/>
   <text width="108" height="20" x="275" y="154" style="fill:#fff;" font-family="Arial" font-size="16px"> fasilitas</text>
   <rect width="108" height="20" x="270" y="160" style="fill:#aea;stroke:black;"/>
   <text width="108" height="20" x="275" y="174" style="fill:black;" font-family="Arial" font-size="16px">id_fasilitas</text>
   <rect width="108" height="20" x="270" y="180" style="fill:none;stroke:black;"/>
   <text width="108" height="20" x="275" y="194" style="fill:black;" font-family="Arial" font-size="16px">kode_fasilitas</text>
   <rect width="108" height="20" x="270" y="200" style="fill:none;stroke:black;"/>
   <text width="108" height="20" x="275" y="214" style="fill:black;" font-family="Arial" font-size="16px">nama_fasilitas</text>
   <rect width="138" height="20" x="30" y="10" style="fill:#007;stroke:black;"/>
   <text width="138" height="20" x="35" y="24" style="fill:#fff;" font-family="Arial" font-size="16px"> jenis_kamar</text>
   <rect width="138" height="20" x="30" y="30" style="fill:#aea;stroke:black;"/>
   <text width="138" height="20" x="35" y="44" style="fill:black;" font-family="Arial" font-size="16px">id_jenis_kamar</text>
   <rect width="138" height="20" x="30" y="50" style="fill:none;stroke:black;"/>
   <text width="138" height="20" x="35" y="64" style="fill:black;" font-family="Arial" font-size="16px">nama_jenis_kamar</text>
   <rect width="138" height="20" x="30" y="70" style="fill:none;stroke:black;"/>
   <text width="138" height="20" x="35" y="84" style="fill:black;" font-family="Arial" font-size="16px">harga_jenis_kamar</text>
   <rect width="159" height="20" x="510" y="10" style="fill:#007;stroke:black;"/>
   <text width="159" height="20" x="515" y="24" style="fill:#fff;" font-family="Arial" font-size="16px"> jenis_makanan</text>
   <rect width="159" height="20" x="510" y="30" style="fill:#aea;stroke:black;"/>
   <text width="159" height="20" x="515" y="44" style="fill:black;" font-family="Arial" font-size="16px">id_jenis_makanan</text>
   <rect width="159" height="20" x="510" y="50" style="fill:none;stroke:black;"/>
   <text width="159" height="20" x="515" y="64" style="fill:black;" font-family="Arial" font-size="16px">nama_jenis_makanan</text>
   <rect width="110" height="20" x="30" y="150" style="fill:#007;stroke:black;"/>
   <text width="110" height="20" x="35" y="164" style="fill:#fff;" font-family="Arial" font-size="16px"> kamar</text>
   <rect width="110" height="20" x="30" y="170" style="fill:#aea;stroke:black;"/>
   <text width="110" height="20" x="35" y="184" style="fill:black;" font-family="Arial" font-size="16px">id_kamar</text>
   <rect width="110" height="20" x="30" y="190" style="fill:none;stroke:black;"/>
   <text width="110" height="20" x="35" y="204" style="fill:black;" font-family="Arial" font-size="16px">kode_kamar</text>
   <rect width="110" height="20" x="30" y="210" style="fill:none;stroke:black;"/>
   <text width="110" height="20" x="35" y="224" style="fill:black;" font-family="Arial" font-size="16px">nomor_kamar</text>
   <rect width="110" height="20" x="30" y="230" style="fill:none;stroke:black;"/>
   <text width="110" height="20" x="35" y="244" style="fill:black;" font-family="Arial" font-size="16px">nomor_lantai</text>
   <rect width="110" height="20" x="30" y="250" style="fill:none;stroke:black;"/>
   <text width="110" height="20" x="35" y="264" style="fill:black;" font-family="Arial" font-size="16px">status_kamar</text>
   <rect width="110" height="20" x="30" y="270" style="fill:none;stroke:black;"/>
   <text width="110" height="20" x="35" y="284" style="fill:black;" font-family="Arial" font-size="16px">id_jenis_kamar</text>
   <rect width="187" height="20" x="970" y="240" style="fill:#007;stroke:black;"/>
   <text width="187" height="20" x="975" y="254" style="fill:#fff;" font-family="Arial" font-size="16px"> karyawan</text>
   <rect width="187" height="20" x="970" y="260" style="fill:#aea;stroke:black;"/>
   <text width="187" height="20" x="975" y="274" style="fill:black;" font-family="Arial" font-size="16px">id_karyawan</text>
   <rect width="187" height="20" x="970" y="280" style="fill:none;stroke:black;"/>
   <text width="187" height="20" x="975" y="294" style="fill:black;" font-family="Arial" font-size="16px">kode_karyawan</text>
   <rect width="187" height="20" x="970" y="300" style="fill:none;stroke:black;"/>
   <text width="187" height="20" x="975" y="314" style="fill:black;" font-family="Arial" font-size="16px">username</text>
   <rect width="187" height="20" x="970" y="320" style="fill:none;stroke:black;"/>
   <text width="187" height="20" x="975" y="334" style="fill:black;" font-family="Arial" font-size="16px">nama_karyawan</text>
   <rect width="187" height="20" x="970" y="340" style="fill:none;stroke:black;"/>
   <text width="187" height="20" x="975" y="354" style="fill:black;" font-family="Arial" font-size="16px">jenis_kelamin_karyawan</text>
   <rect width="187" height="20" x="970" y="360" style="fill:none;stroke:black;"/>
   <text width="187" height="20" x="975" y="374" style="fill:black;" font-family="Arial" font-size="16px">tanggal_lahir_karyawan</text>
   <rect width="187" height="20" x="970" y="380" style="fill:none;stroke:black;"/>
   <text width="187" height="20" x="975" y="394" style="fill:black;" font-family="Arial" font-size="16px">alamat_karyawan</text>
   <rect width="187" height="20" x="970" y="400" style="fill:none;stroke:black;"/>
   <text width="187" height="20" x="975" y="414" style="fill:black;" font-family="Arial" font-size="16px">nomor_telepon_karyawan</text>
   <rect width="187" height="20" x="970" y="420" style="fill:none;stroke:black;"/>
   <text width="187" height="20" x="975" y="434" style="fill:black;" font-family="Arial" font-size="16px">email_karyawan</text>
   <rect width="187" height="20" x="970" y="440" style="fill:none;stroke:black;"/>
   <text width="187" height="20" x="975" y="454" style="fill:black;" font-family="Arial" font-size="16px">password</text>
   <rect width="187" height="20" x="970" y="460" style="fill:none;stroke:black;"/>
   <text width="187" height="20" x="975" y="474" style="fill:black;" font-family="Arial" font-size="16px">roles</text>
   <rect width="131" height="20" x="510" y="110" style="fill:#007;stroke:black;"/>
   <text width="131" height="20" x="515" y="124" style="fill:#fff;" font-family="Arial" font-size="16px"> makanan</text>
   <rect width="131" height="20" x="510" y="130" style="fill:#aea;stroke:black;"/>
   <text width="131" height="20" x="515" y="144" style="fill:black;" font-family="Arial" font-size="16px">id_makanan</text>
   <rect width="131" height="20" x="510" y="150" style="fill:none;stroke:black;"/>
   <text width="131" height="20" x="515" y="164" style="fill:black;" font-family="Arial" font-size="16px">nama_makanan</text>
   <rect width="131" height="20" x="510" y="170" style="fill:none;stroke:black;"/>
   <text width="131" height="20" x="515" y="184" style="fill:black;" font-family="Arial" font-size="16px">harga_makanan</text>
   <rect width="131" height="20" x="510" y="190" style="fill:none;stroke:black;"/>
   <text width="131" height="20" x="515" y="204" style="fill:black;" font-family="Arial" font-size="16px">stok_makanan</text>
   <rect width="131" height="20" x="510" y="210" style="fill:none;stroke:black;"/>
   <text width="131" height="20" x="515" y="224" style="fill:black;" font-family="Arial" font-size="16px">status_makanan</text>
   <rect width="131" height="20" x="510" y="230" style="fill:none;stroke:black;"/>
   <text width="131" height="20" x="515" y="244" style="fill:black;" font-family="Arial" font-size="16px">id_jenis_makanan</text>
   <rect width="165" height="20" x="750" y="20" style="fill:#007;stroke:black;"/>
   <text width="165" height="20" x="755" y="34" style="fill:#fff;" font-family="Arial" font-size="16px"> pemesanan_makanan</text>
   <rect width="165" height="20" x="750" y="40" style="fill:#aea;stroke:black;"/>
   <text width="165" height="20" x="755" y="54" style="fill:black;" font-family="Arial" font-size="16px">id_pemesanan</text>
   <rect width="165" height="20" x="750" y="60" style="fill:none;stroke:black;"/>
   <text width="165" height="20" x="755" y="74" style="fill:black;" font-family="Arial" font-size="16px">kode_pemesanan</text>
   <rect width="165" height="20" x="750" y="80" style="fill:none;stroke:black;"/>
   <text width="165" height="20" x="755" y="94" style="fill:black;" font-family="Arial" font-size="16px">id_makanan</text>
   <rect width="165" height="20" x="750" y="100" style="fill:none;stroke:black;"/>
   <text width="165" height="20" x="755" y="114" style="fill:black;" font-family="Arial" font-size="16px">tanggal_pemesanan</text>
   <rect width="165" height="20" x="750" y="120" style="fill:none;stroke:black;"/>
   <text width="165" height="20" x="755" y="134" style="fill:black;" font-family="Arial" font-size="16px">kode_tamu</text>
   <rect width="165" height="20" x="750" y="140" style="fill:none;stroke:black;"/>
   <text width="165" height="20" x="755" y="154" style="fill:black;" font-family="Arial" font-size="16px">jumlah_pemesanan</text>
   <rect width="136" height="20" x="750" y="240" style="fill:#007;stroke:black;"/>
   <text width="136" height="20" x="755" y="254" style="fill:#fff;" font-family="Arial" font-size="16px"> reservasi</text>
   <rect width="136" height="20" x="750" y="260" style="fill:#aea;stroke:black;"/>
   <text width="136" height="20" x="755" y="274" style="fill:black;" font-family="Arial" font-size="16px">id_reservasi</text>
   <rect width="136" height="20" x="750" y="280" style="fill:none;stroke:black;"/>
   <text width="136" height="20" x="755" y="294" style="fill:black;" font-family="Arial" font-size="16px">kode_reservasi</text>
   <rect width="136" height="20" x="750" y="300" style="fill:none;stroke:black;"/>
   <text width="136" height="20" x="755" y="314" style="fill:black;" font-family="Arial" font-size="16px">kode_tamu</text>
   <rect width="136" height="20" x="750" y="320" style="fill:none;stroke:black;"/>
   <text width="136" height="20" x="755" y="334" style="fill:black;" font-family="Arial" font-size="16px">kode_kamar</text>
   <rect width="136" height="20" x="750" y="340" style="fill:none;stroke:black;"/>
   <text width="136" height="20" x="755" y="354" style="fill:black;" font-family="Arial" font-size="16px">down_payment</text>
   <rect width="136" height="20" x="750" y="360" style="fill:none;stroke:black;"/>
   <text width="136" height="20" x="755" y="374" style="fill:black;" font-family="Arial" font-size="16px">deposito</text>
   <rect width="136" height="20" x="750" y="380" style="fill:none;stroke:black;"/>
   <text width="136" height="20" x="755" y="394" style="fill:black;" font-family="Arial" font-size="16px">tanggal_check_in</text>
   <rect width="136" height="20" x="750" y="400" style="fill:none;stroke:black;"/>
   <text width="136" height="20" x="755" y="414" style="fill:black;" font-family="Arial" font-size="16px">tanggal_check_out</text>
   <rect width="136" height="20" x="750" y="420" style="fill:none;stroke:black;"/>
   <text width="136" height="20" x="755" y="434" style="fill:black;" font-family="Arial" font-size="16px">total_tarif_kamar</text>
   <rect width="136" height="20" x="750" y="440" style="fill:none;stroke:black;"/>
   <text width="136" height="20" x="755" y="454" style="fill:black;" font-family="Arial" font-size="16px">kode_karyawan</text>
   <rect width="154" height="20" x="520" y="330" style="fill:#007;stroke:black;"/>
   <text width="154" height="20" x="525" y="344" style="fill:#fff;" font-family="Arial" font-size="16px"> tamu</text>
   <rect width="154" height="20" x="520" y="350" style="fill:#aea;stroke:black;"/>
   <text width="154" height="20" x="525" y="364" style="fill:black;" font-family="Arial" font-size="16px">id_tamu</text>
   <rect width="154" height="20" x="520" y="370" style="fill:none;stroke:black;"/>
   <text width="154" height="20" x="525" y="384" style="fill:black;" font-family="Arial" font-size="16px">kode_tamu</text>
   <rect width="154" height="20" x="520" y="390" style="fill:none;stroke:black;"/>
   <text width="154" height="20" x="525" y="404" style="fill:black;" font-family="Arial" font-size="16px">nama_tamu</text>
   <rect width="154" height="20" x="520" y="410" style="fill:none;stroke:black;"/>
   <text width="154" height="20" x="525" y="424" style="fill:black;" font-family="Arial" font-size="16px">jenis_kelamin_tamu</text>
   <rect width="154" height="20" x="520" y="430" style="fill:none;stroke:black;"/>
   <text width="154" height="20" x="525" y="444" style="fill:black;" font-family="Arial" font-size="16px">tanggal_lahir_tamu</text>
   <rect width="154" height="20" x="520" y="450" style="fill:none;stroke:black;"/>
   <text width="154" height="20" x="525" y="464" style="fill:black;" font-family="Arial" font-size="16px">alamat_tamu</text>
   <rect width="154" height="20" x="520" y="470" style="fill:none;stroke:black;"/>
   <text width="154" height="20" x="525" y="484" style="fill:black;" font-family="Arial" font-size="16px">nomor_telepon_tamu</text>
   <rect width="154" height="20" x="520" y="490" style="fill:none;stroke:black;"/>
   <text width="154" height="20" x="525" y="504" style="fill:black;" font-family="Arial" font-size="16px">email_tamu</text>
   <rect width="156" height="20" x="250" y="460" style="fill:#007;stroke:black;"/>
   <text width="156" height="20" x="255" y="474" style="fill:#fff;" font-family="Arial" font-size="16px"> use_extra_fasilitas</text>
   <rect width="156" height="20" x="250" y="480" style="fill:#aea;stroke:black;"/>
   <text width="156" height="20" x="255" y="494" style="fill:black;" font-family="Arial" font-size="16px">id_use_extra_fasilitas</text>
   <rect width="156" height="20" x="250" y="500" style="fill:none;stroke:black;"/>
   <text width="156" height="20" x="255" y="514" style="fill:black;" font-family="Arial" font-size="16px">kode_kamar</text>
   <rect width="156" height="20" x="250" y="520" style="fill:none;stroke:black;"/>
   <text width="156" height="20" x="255" y="534" style="fill:black;" font-family="Arial" font-size="16px">kode_tamu</text>
   <rect width="156" height="20" x="250" y="540" style="fill:none;stroke:black;"/>
   <text width="156" height="20" x="255" y="554" style="fill:black;" font-family="Arial" font-size="16px">kode_extra_fasilitas</text>
   <rect width="156" height="20" x="250" y="560" style="fill:none;stroke:black;"/>
   <text width="156" height="20" x="255" y="574" style="fill:black;" font-family="Arial" font-size="16px">jumlah_extra_fasilitas</text>
</svg>
